# xmcd
#
# Track frame offsets:
# 187
# 15520
# 34767
# 48615
# 61437
# 73567
# 91162
# 107972
# 125400
# 138967
#
# Disc length: 2075 seconds
#
#
# Revision: 3
# Processed by: cddbd v1.5.2PL0 Copyright (c) Steve Scherf et al.
# Submitted via: FreeRIP 2.951 
#
DISCID=8608190a
DTITLE=Judds, The - Rockin' With The Rhythm
DYEAR=1985
DGENRE=Country
TTITLE0=Have Mercy
TTITLE1=Grandpa (Tell Me 'Bout the Good Old Days)
TTITLE2=Working in the Coal Mine
TTITLE3=If I Were You
TTITLE4=Rockin' With the Rythm of the Rain
TTITLE5=Tears for You
TTITLE6=Cry Myself to Sleep
TTITLE7=River Roll On
TTITLE8=I Wish She Wouldn't Treat You That Way
TTITLE9=Dream Chaser
EXTD=
EXTT0=
EXTT1=
EXTT2=
EXTT3=
EXTT4=
EXTT5=
EXTT6=
EXTT7=
EXTT8=
EXTT9=
PLAYORDER=
